<svg data-eager="" xmlns="http://www.w3.org/2000/svg" width="130" height="24" viewBox="0 0 146 26"><g fill="none"><path fill="#FFF" d="M 67.219 0.938 L 70.02 13.078 L 72.316 0.938 L 75.82 0.938 L 72.035 18 L 68.496 18 L 65.719 6.586 L 62.941 18 L 59.402 18 L 55.617 0.938 L 59.121 0.938 L 61.43 13.055 L 64.242 0.938 L 67.219 0.938 Z M 10.266 7.852 L 10.266 10.605 L 3.516 10.605 L 3.516 15.176 L 11.438 15.176 L 11.438 18 L 0 18 L 0 0.938 L 11.414 0.938 L 11.414 3.785 L 3.516 3.785 L 3.516 7.852 L 10.266 7.852 Z M 114.387 0 L 114.387 6.703 Q 115.734 5.086 117.773 5.086 Q 121.898 5.086 121.957 9.879 L 121.957 18 L 118.57 18 L 118.57 9.973 Q 118.57 9.307 118.395 8.853 A 1.574 1.574 0 0 0 118.102 8.361 Q 117.633 7.84 116.543 7.84 A 3.016 3.016 0 0 0 115.674 7.958 A 2.169 2.169 0 0 0 114.387 8.988 L 114.387 18 L 111 18 L 111 0 L 114.387 0 Z M 36.27 9.176 L 32.883 9.176 A 1.846 1.846 0 0 0 32.79 8.579 A 1.569 1.569 0 0 0 32.414 7.975 A 1.426 1.426 0 0 0 31.881 7.642 Q 31.494 7.5 30.949 7.5 Q 30.347 7.5 29.936 7.692 A 1.451 1.451 0 0 0 29.625 7.887 A 1.299 1.299 0 0 0 29.289 8.296 A 1.243 1.243 0 0 0 29.156 8.871 A 0.996 0.996 0 0 0 29.518 9.651 A 1.499 1.499 0 0 0 29.689 9.779 A 2.436 2.436 0 0 0 30.047 9.966 Q 30.444 10.138 31.051 10.282 A 12.172 12.172 0 0 0 31.488 10.377 Q 32.457 10.57 33.193 10.801 A 9.863 9.863 0 0 1 33.621 10.945 Q 36.305 11.93 36.305 14.355 A 3.234 3.234 0 0 1 35.206 16.847 A 4.368 4.368 0 0 1 34.816 17.162 A 5.419 5.419 0 0 1 32.929 18.014 Q 32.04 18.234 30.973 18.234 A 7.632 7.632 0 0 1 29.468 18.092 A 5.981 5.981 0 0 1 28.143 17.666 A 5.213 5.213 0 0 1 26.979 16.943 A 4.386 4.386 0 0 1 26.203 16.107 A 3.759 3.759 0 0 1 25.593 14.782 A 3.557 3.557 0 0 1 25.5 13.969 L 28.711 13.969 A 2.203 2.203 0 0 0 28.823 14.575 A 1.636 1.636 0 0 0 29.379 15.352 A 2.164 2.164 0 0 0 30.145 15.723 Q 30.546 15.832 31.043 15.832 A 4.112 4.112 0 0 0 31.579 15.799 Q 31.851 15.764 32.072 15.688 A 1.604 1.604 0 0 0 32.514 15.463 A 1.284 1.284 0 0 0 32.836 15.125 Q 33.011 14.851 33.012 14.497 A 1.2 1.2 0 0 0 33.012 14.496 A 1.029 1.029 0 0 0 32.623 13.675 A 1.596 1.596 0 0 0 32.396 13.518 A 3.255 3.255 0 0 0 31.992 13.323 Q 31.538 13.138 30.859 12.976 A 14.974 14.974 0 0 0 30.422 12.879 A 11.372 11.372 0 0 1 28.715 12.392 Q 27.879 12.073 27.291 11.648 A 3.09 3.09 0 0 1 25.898 9.035 A 3.421 3.421 0 0 1 27.029 6.452 A 4.644 4.644 0 0 1 27.299 6.217 A 4.907 4.907 0 0 1 29.265 5.273 Q 30.042 5.086 30.961 5.086 A 8.326 8.326 0 0 1 32.555 5.23 Q 33.493 5.413 34.233 5.829 A 4.632 4.632 0 0 1 34.822 6.223 Q 36.27 7.359 36.27 9.176 Z M 40.863 5.32 L 43.219 13.207 L 45.563 5.32 L 49.195 5.32 L 44.098 19.969 L 43.816 20.637 Q 42.753 22.962 40.395 23.111 A 5.213 5.213 0 0 1 40.066 23.121 Q 39.328 23.121 38.566 22.898 L 38.566 20.332 L 39.082 20.344 A 5.064 5.064 0 0 0 39.584 20.321 Q 40.098 20.269 40.423 20.104 A 1.32 1.32 0 0 0 40.518 20.051 A 1.592 1.592 0 0 0 40.964 19.63 Q 41.101 19.444 41.209 19.204 A 3.037 3.037 0 0 0 41.262 19.078 L 41.66 18.035 L 37.219 5.32 L 40.863 5.32 Z M 24.047 18 L 20.625 18 A 2.935 2.935 0 0 1 20.445 17.557 Q 20.344 17.246 20.285 16.863 Q 19.055 18.234 17.086 18.234 A 5.297 5.297 0 0 1 15.627 18.042 A 4.162 4.162 0 0 1 13.998 17.156 A 3.448 3.448 0 0 1 12.779 14.653 A 4.252 4.252 0 0 1 12.773 14.438 A 4.322 4.322 0 0 1 12.975 13.084 A 3.424 3.424 0 0 1 14.268 11.344 A 5.025 5.025 0 0 1 15.701 10.644 Q 16.378 10.429 17.203 10.333 A 12.362 12.362 0 0 1 18.586 10.254 L 20.145 10.254 L 20.145 9.527 Q 20.145 8.648 19.693 8.121 A 1.394 1.394 0 0 0 19.067 7.71 Q 18.835 7.631 18.55 7.606 A 3.181 3.181 0 0 0 18.27 7.594 A 2.882 2.882 0 0 0 17.736 7.64 Q 17.251 7.732 16.928 8.004 A 1.341 1.341 0 0 0 16.453 8.913 A 1.908 1.908 0 0 0 16.441 9.129 L 13.055 9.129 A 3.4 3.4 0 0 1 13.729 7.097 A 4.158 4.158 0 0 1 13.734 7.09 A 4.161 4.161 0 0 1 14.918 6.002 A 5.459 5.459 0 0 1 15.656 5.619 A 6.568 6.568 0 0 1 17.508 5.138 A 8.215 8.215 0 0 1 18.445 5.086 A 7.555 7.555 0 0 1 19.974 5.232 Q 21.273 5.5 22.166 6.264 A 3.842 3.842 0 0 1 23.465 8.612 A 5.668 5.668 0 0 1 23.543 9.574 L 23.543 15.07 Q 23.555 16.875 24.047 17.801 L 24.047 18 Z M 100.875 18 L 97.453 18 A 2.935 2.935 0 0 1 97.273 17.557 Q 97.173 17.246 97.113 16.863 Q 95.883 18.234 93.914 18.234 A 5.297 5.297 0 0 1 92.456 18.042 A 4.162 4.162 0 0 1 90.826 17.156 A 3.448 3.448 0 0 1 89.607 14.653 A 4.252 4.252 0 0 1 89.602 14.438 A 4.322 4.322 0 0 1 89.803 13.084 A 3.424 3.424 0 0 1 91.096 11.344 A 5.025 5.025 0 0 1 92.529 10.644 Q 93.206 10.429 94.031 10.333 A 12.362 12.362 0 0 1 95.414 10.254 L 96.973 10.254 L 96.973 9.527 Q 96.973 8.648 96.521 8.121 A 1.394 1.394 0 0 0 95.895 7.71 Q 95.663 7.631 95.378 7.606 A 3.181 3.181 0 0 0 95.098 7.594 A 2.882 2.882 0 0 0 94.565 7.64 Q 94.079 7.732 93.756 8.004 A 1.341 1.341 0 0 0 93.281 8.913 A 1.908 1.908 0 0 0 93.27 9.129 L 89.883 9.129 A 3.4 3.4 0 0 1 90.557 7.097 A 4.158 4.158 0 0 1 90.562 7.09 A 4.161 4.161 0 0 1 91.746 6.002 A 5.459 5.459 0 0 1 92.484 5.619 A 6.568 6.568 0 0 1 94.336 5.138 A 8.215 8.215 0 0 1 95.273 5.086 A 7.555 7.555 0 0 1 96.802 5.232 Q 98.101 5.5 98.994 6.264 A 3.842 3.842 0 0 1 100.293 8.612 A 5.668 5.668 0 0 1 100.371 9.574 L 100.371 15.07 Q 100.383 16.875 100.875 17.801 L 100.875 18 Z M 76.676 11.965 L 76.676 11.637 A 8.48 8.48 0 0 1 76.884 9.721 A 6.959 6.959 0 0 1 77.414 8.221 Q 78.152 6.715 79.506 5.9 A 5.722 5.722 0 0 1 82.055 5.106 A 7.026 7.026 0 0 1 82.594 5.086 Q 85.195 5.086 86.689 6.727 A 5.356 5.356 0 0 1 87.844 8.82 Q 88.088 9.628 88.157 10.596 A 11.084 11.084 0 0 1 88.184 11.379 L 88.184 12.762 L 80.109 12.762 A 3.598 3.598 0 0 0 80.392 13.782 A 2.937 2.937 0 0 0 81.1 14.754 A 2.859 2.859 0 0 0 82.695 15.473 A 3.861 3.861 0 0 0 83.191 15.504 A 4.323 4.323 0 0 0 84.564 15.296 A 3.502 3.502 0 0 0 86.25 14.086 L 87.914 15.949 A 4.99 4.99 0 0 1 86.171 17.471 A 6.029 6.029 0 0 1 85.852 17.631 A 6.552 6.552 0 0 1 83.6 18.209 A 7.874 7.874 0 0 1 82.969 18.234 A 7.412 7.412 0 0 1 80.874 17.952 A 5.777 5.777 0 0 1 78.428 16.523 Q 76.676 14.813 76.676 11.965 Z M 124.055 11.965 L 124.055 11.637 A 8.48 8.48 0 0 1 124.263 9.721 A 6.959 6.959 0 0 1 124.793 8.221 Q 125.531 6.715 126.885 5.9 A 5.722 5.722 0 0 1 129.433 5.106 A 7.026 7.026 0 0 1 129.973 5.086 Q 132.574 5.086 134.068 6.727 A 5.356 5.356 0 0 1 135.223 8.82 Q 135.467 9.628 135.536 10.596 A 11.084 11.084 0 0 1 135.563 11.379 L 135.563 12.762 L 127.488 12.762 A 3.598 3.598 0 0 0 127.771 13.782 A 2.937 2.937 0 0 0 128.479 14.754 A 2.859 2.859 0 0 0 130.074 15.473 A 3.861 3.861 0 0 0 130.57 15.504 A 4.323 4.323 0 0 0 131.943 15.296 A 3.502 3.502 0 0 0 133.629 14.086 L 135.293 15.949 A 4.99 4.99 0 0 1 133.55 17.471 A 6.029 6.029 0 0 1 133.23 17.631 A 6.552 6.552 0 0 1 130.979 18.209 A 7.874 7.874 0 0 1 130.348 18.234 A 7.412 7.412 0 0 1 128.253 17.952 A 5.777 5.777 0 0 1 125.807 16.523 Q 124.055 14.813 124.055 11.965 Z M 103.641 2.203 L 107.027 2.203 L 107.027 5.32 L 109.195 5.32 L 109.195 7.805 L 107.027 7.805 L 107.027 14.133 A 2.912 2.912 0 0 0 107.046 14.478 Q 107.091 14.85 107.24 15.067 A 0.751 0.751 0 0 0 107.297 15.141 A 0.724 0.724 0 0 0 107.553 15.32 Q 107.788 15.423 108.16 15.441 A 3.404 3.404 0 0 0 108.328 15.445 A 6.62 6.62 0 0 0 108.796 15.43 Q 109.08 15.409 109.324 15.363 L 109.324 17.93 A 6.972 6.972 0 0 1 107.273 18.234 A 5.091 5.091 0 0 1 105.838 18.05 Q 103.695 17.419 103.641 14.637 L 103.641 7.805 L 101.789 7.805 L 101.789 5.32 L 103.641 5.32 L 103.641 2.203 Z M 144.656 5.238 L 144.609 8.496 A 11.892 11.892 0 0 0 144.114 8.439 Q 143.843 8.414 143.603 8.406 A 6.491 6.491 0 0 0 143.391 8.402 Q 142.271 8.402 141.601 8.844 A 2.01 2.01 0 0 0 140.871 9.703 L 140.871 18 L 137.484 18 L 137.484 5.32 L 140.684 5.32 L 140.777 6.832 A 4.104 4.104 0 0 1 141.511 5.893 A 2.953 2.953 0 0 1 143.602 5.086 A 3.684 3.684 0 0 1 144.374 5.165 A 3.262 3.262 0 0 1 144.656 5.238 Z M 80.145 10.453 L 84.855 10.453 L 84.855 10.184 A 3.555 3.555 0 0 0 84.776 9.485 Q 84.684 9.071 84.485 8.753 A 1.923 1.923 0 0 0 84.246 8.443 Q 83.681 7.85 82.657 7.829 A 3.689 3.689 0 0 0 82.582 7.828 A 2.427 2.427 0 0 0 81.799 7.949 A 2.031 2.031 0 0 0 80.947 8.508 Q 80.424 9.075 80.215 10.049 A 5.597 5.597 0 0 0 80.145 10.453 Z M 127.523 10.453 L 132.234 10.453 L 132.234 10.184 A 3.555 3.555 0 0 0 132.155 9.485 Q 132.063 9.071 131.864 8.753 A 1.923 1.923 0 0 0 131.625 8.443 Q 131.06 7.85 130.036 7.829 A 3.689 3.689 0 0 0 129.961 7.828 A 2.427 2.427 0 0 0 129.178 7.949 A 2.031 2.031 0 0 0 128.326 8.508 Q 127.803 9.075 127.594 10.049 A 5.597 5.597 0 0 0 127.523 10.453 Z M 20.145 14.414 L 20.145 12.234 L 18.879 12.234 Q 17.765 12.234 17.107 12.572 A 1.667 1.667 0 0 0 16.172 13.992 L 16.16 14.191 A 1.469 1.469 0 0 0 16.258 14.736 A 1.345 1.345 0 0 0 16.605 15.234 A 1.486 1.486 0 0 0 17.25 15.577 Q 17.478 15.636 17.747 15.643 A 2.825 2.825 0 0 0 17.824 15.645 A 2.917 2.917 0 0 0 19.207 15.311 A 2.428 2.428 0 0 0 19.769 14.909 A 2.038 2.038 0 0 0 20.145 14.414 Z M 96.973 14.414 L 96.973 12.234 L 95.707 12.234 Q 94.593 12.234 93.935 12.572 A 1.667 1.667 0 0 0 93 13.992 L 92.988 14.191 A 1.469 1.469 0 0 0 93.086 14.736 A 1.345 1.345 0 0 0 93.434 15.234 A 1.486 1.486 0 0 0 94.078 15.577 Q 94.306 15.636 94.575 15.643 A 2.825 2.825 0 0 0 94.652 15.645 A 2.917 2.917 0 0 0 96.035 15.311 A 2.428 2.428 0 0 0 96.597 14.909 A 2.038 2.038 0 0 0 96.973 14.414 Z"></path></g></svg>
